<?xml version="1.0" encoding="UTF-8" standalone="no"?>
<svg
   xmlns:dc="http://purl.org/dc/elements/1.1/"
   xmlns:cc="http://creativecommons.org/ns#"
   xmlns:rdf="http://www.w3.org/1999/02/22-rdf-syntax-ns#"
   xmlns:svg="http://www.w3.org/2000/svg"
   xmlns="http://www.w3.org/2000/svg"
   xmlns:sodipodi="http://sodipodi.sourceforge.net/DTD/sodipodi-0.dtd"
   xmlns:inkscape="http://www.inkscape.org/namespaces/inkscape"
   width="24"
   height="24"
   viewBox="0 0 24 24"
   fill="none"
   stroke="currentColor"
   stroke-width="2"
   stroke-linecap="round"
   stroke-linejoin="round"
   class="feather feather-share-2"
   version="1.1"
   id="svg3779"
   sodipodi:docname="logo.svg"
   inkscape:version="0.92.4 (5da689c313, 2019-01-14)">
  <metadata
     id="metadata3785">
    <rdf:RDF>
      <cc:Work
         rdf:about="">
        <dc:format>image/svg+xml</dc:format>
        <dc:type
           rdf:resource="http://purl.org/dc/dcmitype/StillImage" />
        <dc:title></dc:title>
      </cc:Work>
    </rdf:RDF>
  </metadata>
  <defs
     id="defs3783" />
  <sodipodi:namedview
     pagecolor="#ffffff"
     bordercolor="#666666"
     borderopacity="1"
     objecttolerance="10"
     gridtolerance="10"
     guidetolerance="10"
     inkscape:pageopacity="0"
     inkscape:pageshadow="2"
     inkscape:window-width="1850"
     inkscape:window-height="1016"
     id="namedview3781"
     showgrid="false"
     inkscape:zoom="17.416667"
     inkscape:cx="11.444023"
     inkscape:cy="12.856291"
     inkscape:window-x="70"
     inkscape:window-y="27"
     inkscape:window-maximized="1"
     inkscape:current-layer="svg3779" />
  <circle
     cx="18"
     cy="5"
     r="3"
     id="circle3769" />
  <circle
     cx="6"
     cy="12"
     r="3"
     id="circle3771" />
  <circle
     cx="18"
     cy="19"
     r="3"
     id="circle3773" />
  <line
     x1="8.59"
     y1="13.51"
     x2="15.42"
     y2="17.49"
     id="line3775" />
  <line
     x1="15.41"
     y1="6.51"
     x2="8.59"
     y2="10.49"
     id="line3777" />
  <path
     style="fill:#1eaedb;fill-opacity:1;stroke-width:0.16239773"
     d="m 17.295631,22.895254 c -0.865498,-0.177421 -1.587218,-0.576252 -2.169758,-1.199035 -0.895667,-0.957541 -1.156059,-1.884474 -1.01565,-3.615472 0.01789,-0.220564 -0.08871,-0.292673 -2.612853,-1.767453 C 9.230243,14.988681 8.8468086,14.790032 8.7282376,14.878663 8.6525422,14.935245 8.4352407,15.099105 8.2453453,15.242797 6.5832635,16.500475 3.9298733,16.001986 2.731125,14.206846 2.2296312,13.455853 2.0448823,12.76227 2.0843818,11.778846 2.1141984,11.0365 2.1401526,10.932775 2.4540663,10.301431 3.5964785,8.0038045 6.415508,7.3373621 8.4357871,8.887301 8.7759838,9.1482964 8.8594956,9.1794955 9.0209805,9.1059179 9.1726918,9.0367933 14.073581,6.1958481 14.150599,6.1323827 14.162547,6.122537 14.136587,5.8623909 14.09291,5.5542802 13.758385,3.194427 15.606413,1.0612218 17.989061,1.0568977 19.07419,1.0549283 19.990494,1.4389872 20.794046,2.2325778 22.38385,3.8026713 22.329326,6.3706311 20.673923,7.890088 19.837844,8.6575057 18.903552,8.9825521 17.731837,8.9136592 16.901306,8.8648268 16.300318,8.6471114 15.626231,8.1508765 L 15.130118,7.7856584 12.466826,9.336746 9.8035341,10.887834 9.8824255,11.22951 c 0.071048,0.307707 0.054376,1.463162 -0.02537,1.758228 -0.021861,0.08089 0.7983905,0.60358 2.6388225,1.681549 l 2.670543,1.564178 0.333815,-0.286128 c 0.812724,-0.696624 2.076404,-1.038843 3.136486,-0.849395 2.123388,0.379471 3.590304,2.393641 3.266561,4.485199 -0.336704,2.175297 -2.514971,3.741097 -4.607652,3.312113 z m 1.542778,-2.05792 c 1.237668,-0.585108 1.57359,-2.153365 0.678957,-3.169722 -1.070965,-1.21668 -3.040631,-0.749987 -3.485255,0.825797 -0.454123,1.609449 1.285833,3.062726 2.806298,2.343925 z M 6.908054,13.8206 C 7.3014591,13.618334 7.6038423,13.3022 7.8375023,12.848886 8.10583,12.328314 8.0481563,11.477103 7.7069189,10.921596 7.3421376,10.327761 6.8354619,10.038189 6.0980949,10.002132 5.5896806,9.9772694 5.4693632,10.001482 5.0766856,10.207647 3.4236245,11.075556 3.6709739,13.383263 5.48067,13.976717 5.8030982,14.082452 6.5597095,13.999698 6.908054,13.8206 Z M 18.989077,6.7569035 c 0.664408,-0.3616154 1.026715,-0.9836826 1.026715,-1.7628246 0,-1.1443791 -0.868291,-2.0057289 -2.016357,-2.0002379 -0.812401,0.00389 -1.439705,0.3844112 -1.824993,1.1070504 -0.241986,0.4538657 -0.241986,1.3325092 0,1.786375 0.566987,1.0634291 1.773604,1.4362374 2.814635,0.8696371 z"
     id="path4592"
     inkscape:connector-curvature="0" />
</svg>
